<mxfile host="app.diagrams.net" modified="2021-03-11T02:57:10.529Z" agent="5.0 (Macintosh; Intel Mac OS X 10_15_6) AppleWebKit/605.1.15 (KHTML, like Gecko) Version/14.0.3 Safari/605.1.15" etag="PPMNmeGQdv0Ad2bhGmfO" version="13.9.9" type="github">
  <diagram id="tecg3Ebke4kYlPjY19By" name="Page-1">
    <mxGraphModel dx="996" dy="825" grid="1" gridSize="10" guides="1" tooltips="1" connect="1" arrows="1" fold="1" page="1" pageScale="1" pageWidth="1100" pageHeight="850" math="0" shadow="0">
      <root>
        <mxCell id="0" />
        <mxCell id="1" parent="0" />
        <mxCell id="lM9nDMKkD4nMDw7KepDL-1" value="tblRoom" style="shape=table;startSize=30;container=1;collapsible=1;childLayout=tableLayout;fixedRows=1;rowLines=0;fontStyle=1;align=center;resizeLast=1;" vertex="1" parent="1">
          <mxGeometry x="390" y="230" width="180" height="160" as="geometry" />
        </mxCell>
        <mxCell id="lM9nDMKkD4nMDw7KepDL-2" value="" style="shape=partialRectangle;collapsible=0;dropTarget=0;pointerEvents=0;fillColor=none;top=0;left=0;bottom=1;right=0;points=[[0,0.5],[1,0.5]];portConstraint=eastwest;" vertex="1" parent="lM9nDMKkD4nMDw7KepDL-1">
          <mxGeometry y="30" width="180" height="30" as="geometry" />
        </mxCell>
        <mxCell id="lM9nDMKkD4nMDw7KepDL-3" value="PK" style="shape=partialRectangle;connectable=0;fillColor=none;top=0;left=0;bottom=0;right=0;fontStyle=1;overflow=hidden;" vertex="1" parent="lM9nDMKkD4nMDw7KepDL-2">
          <mxGeometry width="30" height="30" as="geometry" />
        </mxCell>
        <mxCell id="lM9nDMKkD4nMDw7KepDL-4" value="roomID" style="shape=partialRectangle;connectable=0;fillColor=none;top=0;left=0;bottom=0;right=0;align=left;spacingLeft=6;fontStyle=5;overflow=hidden;" vertex="1" parent="lM9nDMKkD4nMDw7KepDL-2">
          <mxGeometry x="30" width="150" height="30" as="geometry" />
        </mxCell>
        <mxCell id="lM9nDMKkD4nMDw7KepDL-5" value="" style="shape=partialRectangle;collapsible=0;dropTarget=0;pointerEvents=0;fillColor=none;top=0;left=0;bottom=0;right=0;points=[[0,0.5],[1,0.5]];portConstraint=eastwest;" vertex="1" parent="lM9nDMKkD4nMDw7KepDL-1">
          <mxGeometry y="60" width="180" height="30" as="geometry" />
        </mxCell>
        <mxCell id="lM9nDMKkD4nMDw7KepDL-6" value="" style="shape=partialRectangle;connectable=0;fillColor=none;top=0;left=0;bottom=0;right=0;editable=1;overflow=hidden;" vertex="1" parent="lM9nDMKkD4nMDw7KepDL-5">
          <mxGeometry width="30" height="30" as="geometry" />
        </mxCell>
        <mxCell id="lM9nDMKkD4nMDw7KepDL-7" value="name" style="shape=partialRectangle;connectable=0;fillColor=none;top=0;left=0;bottom=0;right=0;align=left;spacingLeft=6;overflow=hidden;" vertex="1" parent="lM9nDMKkD4nMDw7KepDL-5">
          <mxGeometry x="30" width="150" height="30" as="geometry" />
        </mxCell>
        <mxCell id="lM9nDMKkD4nMDw7KepDL-8" value="" style="shape=partialRectangle;collapsible=0;dropTarget=0;pointerEvents=0;fillColor=none;top=0;left=0;bottom=0;right=0;points=[[0,0.5],[1,0.5]];portConstraint=eastwest;" vertex="1" parent="lM9nDMKkD4nMDw7KepDL-1">
          <mxGeometry y="90" width="180" height="30" as="geometry" />
        </mxCell>
        <mxCell id="lM9nDMKkD4nMDw7KepDL-9" value="PK" style="shape=partialRectangle;connectable=0;fillColor=none;top=0;left=0;bottom=0;right=0;editable=1;overflow=hidden;" vertex="1" parent="lM9nDMKkD4nMDw7KepDL-8">
          <mxGeometry width="30" height="30" as="geometry" />
        </mxCell>
        <mxCell id="lM9nDMKkD4nMDw7KepDL-10" value="type" style="shape=partialRectangle;connectable=0;fillColor=none;top=0;left=0;bottom=0;right=0;align=left;spacingLeft=6;overflow=hidden;" vertex="1" parent="lM9nDMKkD4nMDw7KepDL-8">
          <mxGeometry x="30" width="150" height="30" as="geometry" />
        </mxCell>
        <mxCell id="lM9nDMKkD4nMDw7KepDL-14" value="" style="shape=partialRectangle;collapsible=0;dropTarget=0;pointerEvents=0;fillColor=none;top=0;left=0;bottom=0;right=0;points=[[0,0.5],[1,0.5]];portConstraint=eastwest;" vertex="1" parent="lM9nDMKkD4nMDw7KepDL-1">
          <mxGeometry y="120" width="180" height="30" as="geometry" />
        </mxCell>
        <mxCell id="lM9nDMKkD4nMDw7KepDL-15" value="" style="shape=partialRectangle;connectable=0;fillColor=none;top=0;left=0;bottom=0;right=0;editable=1;overflow=hidden;" vertex="1" parent="lM9nDMKkD4nMDw7KepDL-14">
          <mxGeometry width="30" height="30" as="geometry" />
        </mxCell>
        <mxCell id="lM9nDMKkD4nMDw7KepDL-16" value="price" style="shape=partialRectangle;connectable=0;fillColor=none;top=0;left=0;bottom=0;right=0;align=left;spacingLeft=6;overflow=hidden;" vertex="1" parent="lM9nDMKkD4nMDw7KepDL-14">
          <mxGeometry x="30" width="150" height="30" as="geometry" />
        </mxCell>
        <mxCell id="lM9nDMKkD4nMDw7KepDL-17" value="tblType" style="shape=table;startSize=30;container=1;collapsible=1;childLayout=tableLayout;fixedRows=1;rowLines=0;fontStyle=1;align=center;resizeLast=1;" vertex="1" parent="1">
          <mxGeometry x="660" y="230" width="180" height="130" as="geometry" />
        </mxCell>
        <mxCell id="lM9nDMKkD4nMDw7KepDL-18" value="" style="shape=partialRectangle;collapsible=0;dropTarget=0;pointerEvents=0;fillColor=none;top=0;left=0;bottom=1;right=0;points=[[0,0.5],[1,0.5]];portConstraint=eastwest;" vertex="1" parent="lM9nDMKkD4nMDw7KepDL-17">
          <mxGeometry y="30" width="180" height="30" as="geometry" />
        </mxCell>
        <mxCell id="lM9nDMKkD4nMDw7KepDL-19" value="PK" style="shape=partialRectangle;connectable=0;fillColor=none;top=0;left=0;bottom=0;right=0;fontStyle=1;overflow=hidden;" vertex="1" parent="lM9nDMKkD4nMDw7KepDL-18">
          <mxGeometry width="30" height="30" as="geometry" />
        </mxCell>
        <mxCell id="lM9nDMKkD4nMDw7KepDL-20" value="typeID" style="shape=partialRectangle;connectable=0;fillColor=none;top=0;left=0;bottom=0;right=0;align=left;spacingLeft=6;fontStyle=5;overflow=hidden;" vertex="1" parent="lM9nDMKkD4nMDw7KepDL-18">
          <mxGeometry x="30" width="150" height="30" as="geometry" />
        </mxCell>
        <mxCell id="lM9nDMKkD4nMDw7KepDL-21" value="" style="shape=partialRectangle;collapsible=0;dropTarget=0;pointerEvents=0;fillColor=none;top=0;left=0;bottom=0;right=0;points=[[0,0.5],[1,0.5]];portConstraint=eastwest;" vertex="1" parent="lM9nDMKkD4nMDw7KepDL-17">
          <mxGeometry y="60" width="180" height="30" as="geometry" />
        </mxCell>
        <mxCell id="lM9nDMKkD4nMDw7KepDL-22" value="" style="shape=partialRectangle;connectable=0;fillColor=none;top=0;left=0;bottom=0;right=0;editable=1;overflow=hidden;" vertex="1" parent="lM9nDMKkD4nMDw7KepDL-21">
          <mxGeometry width="30" height="30" as="geometry" />
        </mxCell>
        <mxCell id="lM9nDMKkD4nMDw7KepDL-23" value="name" style="shape=partialRectangle;connectable=0;fillColor=none;top=0;left=0;bottom=0;right=0;align=left;spacingLeft=6;overflow=hidden;" vertex="1" parent="lM9nDMKkD4nMDw7KepDL-21">
          <mxGeometry x="30" width="150" height="30" as="geometry" />
        </mxCell>
        <mxCell id="lM9nDMKkD4nMDw7KepDL-30" value="" style="shape=partialRectangle;collapsible=0;dropTarget=0;pointerEvents=0;fillColor=none;top=0;left=0;bottom=0;right=0;points=[[0,0.5],[1,0.5]];portConstraint=eastwest;" vertex="1" parent="lM9nDMKkD4nMDw7KepDL-17">
          <mxGeometry y="90" width="180" height="30" as="geometry" />
        </mxCell>
        <mxCell id="lM9nDMKkD4nMDw7KepDL-31" value="" style="shape=partialRectangle;connectable=0;fillColor=none;top=0;left=0;bottom=0;right=0;editable=1;overflow=hidden;" vertex="1" parent="lM9nDMKkD4nMDw7KepDL-30">
          <mxGeometry width="30" height="30" as="geometry" />
        </mxCell>
        <mxCell id="lM9nDMKkD4nMDw7KepDL-32" value="price" style="shape=partialRectangle;connectable=0;fillColor=none;top=0;left=0;bottom=0;right=0;align=left;spacingLeft=6;overflow=hidden;" vertex="1" parent="lM9nDMKkD4nMDw7KepDL-30">
          <mxGeometry x="30" width="150" height="30" as="geometry" />
        </mxCell>
        <mxCell id="lM9nDMKkD4nMDw7KepDL-33" style="edgeStyle=orthogonalEdgeStyle;rounded=0;orthogonalLoop=1;jettySize=auto;html=1;entryX=0;entryY=0.5;entryDx=0;entryDy=0;" edge="1" parent="1" source="lM9nDMKkD4nMDw7KepDL-8" target="lM9nDMKkD4nMDw7KepDL-18">
          <mxGeometry relative="1" as="geometry" />
        </mxCell>
        <mxCell id="lM9nDMKkD4nMDw7KepDL-34" value="tblOrder" style="shape=table;startSize=30;container=1;collapsible=1;childLayout=tableLayout;fixedRows=1;rowLines=0;fontStyle=1;align=center;resizeLast=1;" vertex="1" parent="1">
          <mxGeometry x="390" y="460" width="180" height="160" as="geometry" />
        </mxCell>
        <mxCell id="lM9nDMKkD4nMDw7KepDL-35" value="" style="shape=partialRectangle;collapsible=0;dropTarget=0;pointerEvents=0;fillColor=none;top=0;left=0;bottom=1;right=0;points=[[0,0.5],[1,0.5]];portConstraint=eastwest;" vertex="1" parent="lM9nDMKkD4nMDw7KepDL-34">
          <mxGeometry y="30" width="180" height="30" as="geometry" />
        </mxCell>
        <mxCell id="lM9nDMKkD4nMDw7KepDL-36" value="PK" style="shape=partialRectangle;connectable=0;fillColor=none;top=0;left=0;bottom=0;right=0;fontStyle=1;overflow=hidden;" vertex="1" parent="lM9nDMKkD4nMDw7KepDL-35">
          <mxGeometry width="30" height="30" as="geometry" />
        </mxCell>
        <mxCell id="lM9nDMKkD4nMDw7KepDL-37" value="orderID" style="shape=partialRectangle;connectable=0;fillColor=none;top=0;left=0;bottom=0;right=0;align=left;spacingLeft=6;fontStyle=5;overflow=hidden;" vertex="1" parent="lM9nDMKkD4nMDw7KepDL-35">
          <mxGeometry x="30" width="150" height="30" as="geometry" />
        </mxCell>
        <mxCell id="lM9nDMKkD4nMDw7KepDL-38" value="" style="shape=partialRectangle;collapsible=0;dropTarget=0;pointerEvents=0;fillColor=none;top=0;left=0;bottom=0;right=0;points=[[0,0.5],[1,0.5]];portConstraint=eastwest;" vertex="1" parent="lM9nDMKkD4nMDw7KepDL-34">
          <mxGeometry y="60" width="180" height="30" as="geometry" />
        </mxCell>
        <mxCell id="lM9nDMKkD4nMDw7KepDL-39" value="" style="shape=partialRectangle;connectable=0;fillColor=none;top=0;left=0;bottom=0;right=0;editable=1;overflow=hidden;" vertex="1" parent="lM9nDMKkD4nMDw7KepDL-38">
          <mxGeometry width="30" height="30" as="geometry" />
        </mxCell>
        <mxCell id="lM9nDMKkD4nMDw7KepDL-40" value="name" style="shape=partialRectangle;connectable=0;fillColor=none;top=0;left=0;bottom=0;right=0;align=left;spacingLeft=6;overflow=hidden;" vertex="1" parent="lM9nDMKkD4nMDw7KepDL-38">
          <mxGeometry x="30" width="150" height="30" as="geometry" />
        </mxCell>
        <mxCell id="lM9nDMKkD4nMDw7KepDL-41" value="" style="shape=partialRectangle;collapsible=0;dropTarget=0;pointerEvents=0;fillColor=none;top=0;left=0;bottom=0;right=0;points=[[0,0.5],[1,0.5]];portConstraint=eastwest;" vertex="1" parent="lM9nDMKkD4nMDw7KepDL-34">
          <mxGeometry y="90" width="180" height="30" as="geometry" />
        </mxCell>
        <mxCell id="lM9nDMKkD4nMDw7KepDL-42" value="" style="shape=partialRectangle;connectable=0;fillColor=none;top=0;left=0;bottom=0;right=0;editable=1;overflow=hidden;" vertex="1" parent="lM9nDMKkD4nMDw7KepDL-41">
          <mxGeometry width="30" height="30" as="geometry" />
        </mxCell>
        <mxCell id="lM9nDMKkD4nMDw7KepDL-43" value="type" style="shape=partialRectangle;connectable=0;fillColor=none;top=0;left=0;bottom=0;right=0;align=left;spacingLeft=6;overflow=hidden;" vertex="1" parent="lM9nDMKkD4nMDw7KepDL-41">
          <mxGeometry x="30" width="150" height="30" as="geometry" />
        </mxCell>
        <mxCell id="lM9nDMKkD4nMDw7KepDL-44" value="" style="shape=partialRectangle;collapsible=0;dropTarget=0;pointerEvents=0;fillColor=none;top=0;left=0;bottom=0;right=0;points=[[0,0.5],[1,0.5]];portConstraint=eastwest;" vertex="1" parent="lM9nDMKkD4nMDw7KepDL-34">
          <mxGeometry y="120" width="180" height="30" as="geometry" />
        </mxCell>
        <mxCell id="lM9nDMKkD4nMDw7KepDL-45" value="" style="shape=partialRectangle;connectable=0;fillColor=none;top=0;left=0;bottom=0;right=0;editable=1;overflow=hidden;" vertex="1" parent="lM9nDMKkD4nMDw7KepDL-44">
          <mxGeometry width="30" height="30" as="geometry" />
        </mxCell>
        <mxCell id="lM9nDMKkD4nMDw7KepDL-46" value="price" style="shape=partialRectangle;connectable=0;fillColor=none;top=0;left=0;bottom=0;right=0;align=left;spacingLeft=6;overflow=hidden;" vertex="1" parent="lM9nDMKkD4nMDw7KepDL-44">
          <mxGeometry x="30" width="150" height="30" as="geometry" />
        </mxCell>
        <mxCell id="lM9nDMKkD4nMDw7KepDL-47" value="tblOrderDetail" style="shape=table;startSize=30;container=1;collapsible=1;childLayout=tableLayout;fixedRows=1;rowLines=0;fontStyle=1;align=center;resizeLast=1;" vertex="1" parent="1">
          <mxGeometry x="660" y="460" width="180" height="160" as="geometry" />
        </mxCell>
        <mxCell id="lM9nDMKkD4nMDw7KepDL-48" value="" style="shape=partialRectangle;collapsible=0;dropTarget=0;pointerEvents=0;fillColor=none;top=0;left=0;bottom=1;right=0;points=[[0,0.5],[1,0.5]];portConstraint=eastwest;" vertex="1" parent="lM9nDMKkD4nMDw7KepDL-47">
          <mxGeometry y="30" width="180" height="30" as="geometry" />
        </mxCell>
        <mxCell id="lM9nDMKkD4nMDw7KepDL-49" value="PK" style="shape=partialRectangle;connectable=0;fillColor=none;top=0;left=0;bottom=0;right=0;fontStyle=1;overflow=hidden;" vertex="1" parent="lM9nDMKkD4nMDw7KepDL-48">
          <mxGeometry width="30" height="30" as="geometry" />
        </mxCell>
        <mxCell id="lM9nDMKkD4nMDw7KepDL-50" value="orderID" style="shape=partialRectangle;connectable=0;fillColor=none;top=0;left=0;bottom=0;right=0;align=left;spacingLeft=6;fontStyle=5;overflow=hidden;" vertex="1" parent="lM9nDMKkD4nMDw7KepDL-48">
          <mxGeometry x="30" width="150" height="30" as="geometry" />
        </mxCell>
        <mxCell id="lM9nDMKkD4nMDw7KepDL-51" value="" style="shape=partialRectangle;collapsible=0;dropTarget=0;pointerEvents=0;fillColor=none;top=0;left=0;bottom=0;right=0;points=[[0,0.5],[1,0.5]];portConstraint=eastwest;" vertex="1" parent="lM9nDMKkD4nMDw7KepDL-47">
          <mxGeometry y="60" width="180" height="30" as="geometry" />
        </mxCell>
        <mxCell id="lM9nDMKkD4nMDw7KepDL-52" value="" style="shape=partialRectangle;connectable=0;fillColor=none;top=0;left=0;bottom=0;right=0;editable=1;overflow=hidden;" vertex="1" parent="lM9nDMKkD4nMDw7KepDL-51">
          <mxGeometry width="30" height="30" as="geometry" />
        </mxCell>
        <mxCell id="lM9nDMKkD4nMDw7KepDL-53" value="name" style="shape=partialRectangle;connectable=0;fillColor=none;top=0;left=0;bottom=0;right=0;align=left;spacingLeft=6;overflow=hidden;" vertex="1" parent="lM9nDMKkD4nMDw7KepDL-51">
          <mxGeometry x="30" width="150" height="30" as="geometry" />
        </mxCell>
        <mxCell id="lM9nDMKkD4nMDw7KepDL-54" value="" style="shape=partialRectangle;collapsible=0;dropTarget=0;pointerEvents=0;fillColor=none;top=0;left=0;bottom=0;right=0;points=[[0,0.5],[1,0.5]];portConstraint=eastwest;" vertex="1" parent="lM9nDMKkD4nMDw7KepDL-47">
          <mxGeometry y="90" width="180" height="30" as="geometry" />
        </mxCell>
        <mxCell id="lM9nDMKkD4nMDw7KepDL-55" value="" style="shape=partialRectangle;connectable=0;fillColor=none;top=0;left=0;bottom=0;right=0;editable=1;overflow=hidden;" vertex="1" parent="lM9nDMKkD4nMDw7KepDL-54">
          <mxGeometry width="30" height="30" as="geometry" />
        </mxCell>
        <mxCell id="lM9nDMKkD4nMDw7KepDL-56" value="type" style="shape=partialRectangle;connectable=0;fillColor=none;top=0;left=0;bottom=0;right=0;align=left;spacingLeft=6;overflow=hidden;" vertex="1" parent="lM9nDMKkD4nMDw7KepDL-54">
          <mxGeometry x="30" width="150" height="30" as="geometry" />
        </mxCell>
        <mxCell id="lM9nDMKkD4nMDw7KepDL-57" value="" style="shape=partialRectangle;collapsible=0;dropTarget=0;pointerEvents=0;fillColor=none;top=0;left=0;bottom=0;right=0;points=[[0,0.5],[1,0.5]];portConstraint=eastwest;" vertex="1" parent="lM9nDMKkD4nMDw7KepDL-47">
          <mxGeometry y="120" width="180" height="30" as="geometry" />
        </mxCell>
        <mxCell id="lM9nDMKkD4nMDw7KepDL-58" value="" style="shape=partialRectangle;connectable=0;fillColor=none;top=0;left=0;bottom=0;right=0;editable=1;overflow=hidden;" vertex="1" parent="lM9nDMKkD4nMDw7KepDL-57">
          <mxGeometry width="30" height="30" as="geometry" />
        </mxCell>
        <mxCell id="lM9nDMKkD4nMDw7KepDL-59" value="price" style="shape=partialRectangle;connectable=0;fillColor=none;top=0;left=0;bottom=0;right=0;align=left;spacingLeft=6;overflow=hidden;" vertex="1" parent="lM9nDMKkD4nMDw7KepDL-57">
          <mxGeometry x="30" width="150" height="30" as="geometry" />
        </mxCell>
        <mxCell id="lM9nDMKkD4nMDw7KepDL-60" value="tblUser" style="shape=table;startSize=30;container=1;collapsible=1;childLayout=tableLayout;fixedRows=1;rowLines=0;fontStyle=1;align=center;resizeLast=1;" vertex="1" parent="1">
          <mxGeometry x="160" y="230" width="180" height="160" as="geometry" />
        </mxCell>
        <mxCell id="lM9nDMKkD4nMDw7KepDL-61" value="" style="shape=partialRectangle;collapsible=0;dropTarget=0;pointerEvents=0;fillColor=none;top=0;left=0;bottom=1;right=0;points=[[0,0.5],[1,0.5]];portConstraint=eastwest;" vertex="1" parent="lM9nDMKkD4nMDw7KepDL-60">
          <mxGeometry y="30" width="180" height="30" as="geometry" />
        </mxCell>
        <mxCell id="lM9nDMKkD4nMDw7KepDL-62" value="PK" style="shape=partialRectangle;connectable=0;fillColor=none;top=0;left=0;bottom=0;right=0;fontStyle=1;overflow=hidden;" vertex="1" parent="lM9nDMKkD4nMDw7KepDL-61">
          <mxGeometry width="30" height="30" as="geometry" />
        </mxCell>
        <mxCell id="lM9nDMKkD4nMDw7KepDL-63" value="userID" style="shape=partialRectangle;connectable=0;fillColor=none;top=0;left=0;bottom=0;right=0;align=left;spacingLeft=6;fontStyle=5;overflow=hidden;" vertex="1" parent="lM9nDMKkD4nMDw7KepDL-61">
          <mxGeometry x="30" width="150" height="30" as="geometry" />
        </mxCell>
        <mxCell id="lM9nDMKkD4nMDw7KepDL-64" value="" style="shape=partialRectangle;collapsible=0;dropTarget=0;pointerEvents=0;fillColor=none;top=0;left=0;bottom=0;right=0;points=[[0,0.5],[1,0.5]];portConstraint=eastwest;" vertex="1" parent="lM9nDMKkD4nMDw7KepDL-60">
          <mxGeometry y="60" width="180" height="30" as="geometry" />
        </mxCell>
        <mxCell id="lM9nDMKkD4nMDw7KepDL-65" value="" style="shape=partialRectangle;connectable=0;fillColor=none;top=0;left=0;bottom=0;right=0;editable=1;overflow=hidden;" vertex="1" parent="lM9nDMKkD4nMDw7KepDL-64">
          <mxGeometry width="30" height="30" as="geometry" />
        </mxCell>
        <mxCell id="lM9nDMKkD4nMDw7KepDL-66" value="password" style="shape=partialRectangle;connectable=0;fillColor=none;top=0;left=0;bottom=0;right=0;align=left;spacingLeft=6;overflow=hidden;" vertex="1" parent="lM9nDMKkD4nMDw7KepDL-64">
          <mxGeometry x="30" width="150" height="30" as="geometry" />
        </mxCell>
        <mxCell id="lM9nDMKkD4nMDw7KepDL-67" value="" style="shape=partialRectangle;collapsible=0;dropTarget=0;pointerEvents=0;fillColor=none;top=0;left=0;bottom=0;right=0;points=[[0,0.5],[1,0.5]];portConstraint=eastwest;" vertex="1" parent="lM9nDMKkD4nMDw7KepDL-60">
          <mxGeometry y="90" width="180" height="30" as="geometry" />
        </mxCell>
        <mxCell id="lM9nDMKkD4nMDw7KepDL-68" value="" style="shape=partialRectangle;connectable=0;fillColor=none;top=0;left=0;bottom=0;right=0;editable=1;overflow=hidden;" vertex="1" parent="lM9nDMKkD4nMDw7KepDL-67">
          <mxGeometry width="30" height="30" as="geometry" />
        </mxCell>
        <mxCell id="lM9nDMKkD4nMDw7KepDL-69" value="name" style="shape=partialRectangle;connectable=0;fillColor=none;top=0;left=0;bottom=0;right=0;align=left;spacingLeft=6;overflow=hidden;" vertex="1" parent="lM9nDMKkD4nMDw7KepDL-67">
          <mxGeometry x="30" width="150" height="30" as="geometry" />
        </mxCell>
        <mxCell id="lM9nDMKkD4nMDw7KepDL-70" value="" style="shape=partialRectangle;collapsible=0;dropTarget=0;pointerEvents=0;fillColor=none;top=0;left=0;bottom=0;right=0;points=[[0,0.5],[1,0.5]];portConstraint=eastwest;" vertex="1" parent="lM9nDMKkD4nMDw7KepDL-60">
          <mxGeometry y="120" width="180" height="30" as="geometry" />
        </mxCell>
        <mxCell id="lM9nDMKkD4nMDw7KepDL-71" value="" style="shape=partialRectangle;connectable=0;fillColor=none;top=0;left=0;bottom=0;right=0;editable=1;overflow=hidden;" vertex="1" parent="lM9nDMKkD4nMDw7KepDL-70">
          <mxGeometry width="30" height="30" as="geometry" />
        </mxCell>
        <mxCell id="lM9nDMKkD4nMDw7KepDL-72" value="role" style="shape=partialRectangle;connectable=0;fillColor=none;top=0;left=0;bottom=0;right=0;align=left;spacingLeft=6;overflow=hidden;" vertex="1" parent="lM9nDMKkD4nMDw7KepDL-70">
          <mxGeometry x="30" width="150" height="30" as="geometry" />
        </mxCell>
      </root>
    </mxGraphModel>
  </diagram>
</mxfile>
